# xmcd CD database file
#
# Track frame offsets:
#	150
#	11947
#	30692
#	42372
#	56142
#	72175
#	89130
#	105807
#	119825
#	139530
#	157287
#	172235
#
# Disc length: 2523 seconds
#
# Revision: 2
# Processed by: cddbd v1.5.2PL0 Copyright (c) Steve Scherf et al.
# Submitted via: CDex 1.51
#
DISCID=b309d90c
DTITLE=The Amazing Rhythm Aces - Chock Full Of Country Goodness
DYEAR=1998
DGENRE=Country
TTITLE0=Yippe Yi Yo Yo
TTITLE1=The Rock
TTITLE2=Jerry Fontaine And His Jammin' Guitar
TTITLE3=Dancin' With The Ones You Love
TTITLE4=Fake It 'til I Make It
TTITLE5=Guardian Angel
TTITLE6=Makin' Nothin' Outa Somethin'
TTITLE7=Rednecks Unplugged
TTITLE8=Vera Cruz
TTITLE9=If I Could Call You Mine
TTITLE10=Dui Sol
TTITLE11=A Heart To Come Home To
EXTD=YEAR: 1998
EXTT0=
EXTT1=
EXTT2=
EXTT3=
EXTT4=
EXTT5=
EXTT6=
EXTT7=
EXTT8=
EXTT9=
EXTT10=
EXTT11=
PLAYORDER=
